<svg xmlns="http://www.w3.org/2000/svg" xmlns:xlink="http://www.w3.org/1999/xlink" width="1080" zoomAndPan="magnify" viewBox="0 0 810 809.999993" height="1080" preserveAspectRatio="xMidYMid meet" version="1.0"><defs><clipPath id="5e95a9743c"><path d="M 515.527344 57.363281 L 765 57.363281 L 765 752.613281 L 515.527344 752.613281 Z M 515.527344 57.363281 " clip-rule="nonzero"/></clipPath><clipPath id="46b9645bbd"><path d="M 249.140625 153.179688 L 464 153.179688 L 464 752.429688 L 249.140625 752.429688 Z M 249.140625 153.179688 " clip-rule="nonzero"/></clipPath><clipPath id="46820dd053"><path d="M 45.136719 325.886719 L 198 325.886719 L 198 752.636719 L 45.136719 752.636719 Z M 45.136719 325.886719 " clip-rule="nonzero"/></clipPath></defs><g clip-path="url(#5e95a9743c)"><path fill="#000000" d="M 640.390625 57.363281 C 612.761719 57.363281 590.46875 79.875 590.46875 107.464844 C 590.46875 135.054688 612.761719 157.320312 640.390625 157.320312 C 668.015625 157.320312 690.5625 135.058594 690.5625 107.464844 C 690.5625 79.875 668.015625 57.363281 640.390625 57.363281 Z M 562.402344 185.105469 C 536.507812 185.105469 515.953125 204.894531 515.953125 229.253906 L 515.953125 431.410156 C 515.953125 462.3125 560.660156 462.3125 560.660156 431.410156 L 560.660156 271.675781 L 576.558594 271.675781 L 576.558594 727.078125 C 576.558594 741.015625 589.0625 752.625 603.878906 752.625 C 618.691406 752.625 629.957031 741.011719 629.957031 727.078125 L 629.957031 476.3125 L 650.820312 476.3125 L 650.820312 727.078125 C 650.820312 741.015625 662.332031 752.625 677.148438 752.625 C 691.964844 752.625 704.46875 741.015625 704.46875 727.078125 L 704.46875 271.675781 L 720.117188 271.675781 L 720.117188 431.410156 C 720.117188 462.3125 764.824219 462.3125 764.824219 431.410156 L 764.824219 229.253906 C 764.824219 204.894531 744.273438 185.105469 718.378906 185.105469 L 562.398438 185.105469 Z M 562.402344 185.105469 " fill-opacity="1" fill-rule="nonzero"/></g><g clip-path="url(#46b9645bbd)"><path fill="#000000" d="M 356.753906 153.179688 C 332.945312 153.179688 313.730469 172.582031 313.730469 196.363281 C 313.730469 220.144531 332.945312 239.335938 356.753906 239.335938 C 380.566406 239.335938 399.996094 220.144531 399.996094 196.363281 C 399.996094 172.582031 380.566406 153.179688 356.753906 153.179688 Z M 289.539062 263.28125 C 267.222656 263.28125 249.511719 280.339844 249.511719 301.335938 L 249.511719 475.578125 C 249.511719 502.210938 288.042969 502.210938 288.042969 475.578125 L 288.042969 337.902344 L 301.742188 337.902344 L 301.742188 730.417969 C 301.742188 742.433594 312.519531 752.4375 325.289062 752.4375 C 338.054688 752.4375 347.765625 742.429688 347.765625 730.417969 L 347.765625 514.28125 L 365.746094 514.28125 L 365.746094 730.417969 C 365.746094 742.429688 375.667969 752.4375 388.433594 752.4375 C 401.203125 752.4375 411.980469 742.433594 411.980469 730.417969 L 411.980469 337.902344 L 425.46875 337.902344 L 425.46875 475.578125 C 425.46875 502.210938 463.996094 502.210938 463.996094 475.578125 L 463.996094 301.335938 C 463.996094 280.339844 446.285156 263.28125 423.96875 263.28125 Z M 289.539062 263.28125 " fill-opacity="1" fill-rule="nonzero"/></g><g clip-path="url(#46820dd053)"><path fill="#000000" d="M 121.644531 325.886719 C 138.570312 325.886719 152.226562 339.707031 152.226562 356.640625 C 152.226562 373.574219 138.570312 387.242188 121.644531 387.242188 C 104.71875 387.242188 90.910156 373.578125 90.910156 356.640625 C 90.910156 339.707031 104.71875 325.886719 121.644531 325.886719 Z M 169.421875 404.296875 C 185.28125 404.296875 197.871094 416.445312 197.871094 431.394531 L 197.871094 555.480469 C 197.871094 574.449219 170.484375 574.449219 170.484375 555.480469 L 170.484375 457.433594 L 160.746094 457.433594 L 160.746094 736.964844 C 160.746094 745.519531 153.085938 752.644531 144.011719 752.644531 C 134.9375 752.644531 128.035156 745.515625 128.035156 736.964844 L 128.035156 583.042969 L 115.253906 583.042969 L 115.253906 736.964844 C 115.253906 745.515625 108.203125 752.644531 99.125 752.644531 C 90.050781 752.644531 82.390625 745.519531 82.390625 736.964844 L 82.390625 457.433594 L 72.804688 457.433594 L 72.804688 555.480469 C 72.804688 574.449219 45.417969 574.449219 45.417969 555.480469 L 45.417969 431.394531 C 45.417969 416.445312 58.007812 404.296875 73.871094 404.296875 Z M 169.421875 404.296875 " fill-opacity="1" fill-rule="nonzero"/></g></svg>