<?xml version="1.0" encoding="UTF-8"?>
<svg id="Layer_2" data-name="Layer 2" xmlns="http://www.w3.org/2000/svg" viewBox="0 0 201.4 286.81">
  <defs>
    <style>
      .cls-1 {
        fill: #231f20;
      }
    </style>
  </defs>
  <path class="cls-1" d="m170.05,225.59c-16.47,0-29.82,13.34-29.82,29.81s13.35,29.81,29.82,29.81,29.81-13.35,29.81-29.81-13.35-29.81-29.81-29.81Zm15.51,38.45l-2.07,3.65c-.2.36-.66.49-1.02.29l-15.97-9.02h-.03s-.08-.06-.08-.06c-.03-.01-.04-.04-.02-.07-.02-.03-.03-.07-.03-.11v-18.03c0-.28.22-.5.49-.5h4.46c.28,0,.5.22.5.5v14.71l13.48,7.61c.36.2.49.66.29,1.03Z"/>
</svg>