<?xml version="1.0" encoding="UTF-8"?>
<svg id="Layer_1" data-name="Layer 1" xmlns="http://www.w3.org/2000/svg" viewBox="0 0 206.77 426.39">
  <defs>
    <style>
      .cls-1 {
        fill: #231f20;
      }
    </style>
  </defs>
  <g id="niño">
    <ellipse class="cls-1" cx="151.1" cy="255.32" rx="5.7" ry="5.37"/>
    <path class="cls-1" d="m143.78,275.66h14.96v-9.73c0-.63-.15-1.26-.48-1.8-.31-.51-.73-1.07-1.32-1.6-2.26-2.04-5.11-1.9-5.76-1.85-.54-.03-3.07-.13-5.21,1.74-.96.84-1.52,1.8-1.84,2.56-.24.57-.35,1.17-.35,1.79v8.9Z"/>
    <rect class="cls-1" x="145.66" y="275.53" width="3.77" height="11.28"/>
    <rect class="cls-1" x="153.22" y="275.53" width="3.77" height="11.28"/>
  </g>
  <g id="adolecente">
    <ellipse class="cls-1" cx="171.68" cy="243.3" rx="6.39" ry="6.02"/>
    <path class="cls-1" d="m162.43,271.94h18.63v-15.51c-.05-.93-.28-2.35-1.2-3.72-2.57-3.84-7.94-3.41-8.19-3.39-1.24-.04-3.36.1-5.49,1.32-.53.31-1.33.7-2.1,1.66-1.54,1.94-1.71,4.62-1.66,5.5v14.13Z"/>
    <rect class="cls-1" x="165.9" y="271.1" width="3.77" height="15.71"/>
    <rect class="cls-1" x="173.45" y="271.1" width="3.77" height="15.71"/>
  </g>
  <g id="grande">
    <ellipse class="cls-1" cx="195.57" cy="231.2" rx="7.44" ry="7.01"/>
    <path class="cls-1" d="m184.38,265.01h22.38v-18.63c-.06-1.11-.34-2.82-1.44-4.47-3.08-4.61-9.54-4.1-9.84-4.07-1.49-.04-4.04.12-6.6,1.59-.64.37-1.6.84-2.52,2-1.85,2.33-2.06,5.55-1.99,6.61v16.98Z"/>
    <rect class="cls-1" x="188.43" y="264.26" width="3.77" height="22.55"/>
    <rect class="cls-1" x="199.24" y="264.26" width="3.77" height="22.55"/>
  </g>
</svg>